<svg version="1.2" xmlns="http://www.w3.org/2000/svg" viewBox="0 0 1640 664" width="1640" height="664"><defs><linearGradient id="P" gradientUnits="userSpaceOnUse"/><linearGradient id="g1" x2="1" href="#P" gradientTransform="matrix(0,-184,1241,0,844.5,436)"><stop stop-color="#3e8169"/><stop offset="1" stop-color="#8fffff"/></linearGradient></defs><style>.a{fill:url(#g1)}.b{mix-blend-mode:color;fill:#00deff}</style><path class="a" d="m257.7 432h-33.1v-179.9h33.1zm156.2 0h-32.8v-180h32.8zm-28.7-78.8h-131.6v-25.7h131.6zm109 82.1q-25.4 0-39.8-10.1-14.1-10.3-14.1-28.4 0-10.9 5.6-18.7 5.5-8.1 16.3-12.8 11.1-5.1 27-6.8l57.5-6.3q6.5-0.8 9.5-3.3 3.3-2.8 3.3-7.6v-0.2q0-6.6-4.8-11.1-4.5-4.6-13.3-6.8-8.9-2.5-21.2-2.5-18.4 0-29 4.7-10.6 4.6-12.6 13.7h-31.5q1.8-12.9 10.9-21.7 9-9.1 24.9-13.6 15.9-4.8 37.8-4.8 23.4 0 39.1 5.3 15.6 5 23.4 15.3 7.8 10.1 7.8 25.5v86.9h-30.2v-40.5l3.2 4q-5.5 12.9-15.6 21.9-9.8 8.8-23.7 13.4-13.6 4.5-30.5 4.5zm10.1-22.4q11.6 0 21.4-3 10.1-3.3 17.7-8.9 7.5-5.5 11.8-12.8 4.3-7.6 4.3-16.1v-14.9l5.3 7.6q-4 2.5-9.8 4-5.8 1.2-16.2 2.5l-45.8 6.1q-10.1 1.2-15.1 5.2-4.8 4.1-4.8 11.1 0 9.6 7.8 14.4 8.1 4.8 23.4 4.8zm198.5 19.1h-36.3l-66.7-129.5h35.5l56.2 114.7h-10.1l56.2-114.7h32zm154.2 3.5q-25.7 0-44.6-8.3-18.9-8.5-29.3-23.9-10.1-15.6-10.1-36.3 0-12.1 3.8-22.7 3.8-10.6 10.9-18.9 7.3-8.3 17.3-14.3 10.4-6.1 23.5-9.1 13.1-3 28.5-3 25.9 0 44.8 8.5 18.9 8.3 29 23.7 10.1 15.1 10.1 35.8 0 12.6-3.8 23.2-3.5 10.6-10.8 18.9-7.1 8.3-17.4 14.3-10.1 5.8-23.2 9.1-13.1 3-28.7 3zm0-23.1q10.3 0 18.4-2.3 8.3-2.3 14.3-6.3 6.3-4.3 10.4-9.8 4.2-5.6 6.3-12.4 2-7 2-14.6 0-12.6-5.8-22.7-5.6-10.3-16.9-16.1-11.4-6.1-28.7-6.1-10.1 0-18.4 2.3-8.1 2.3-14.4 6.3-6 4-10.3 9.8-4.1 5.6-6.1 12.4-2 6.5-2 14.1 0 12.6 5.5 22.9 5.8 10.4 17.2 16.4 11.6 6.1 28.5 6.1zm137.3 19.6h-31.5v-179.9h31.5v126l-8.8-3.3 85.7-72.3h39.8l-61.7 51.9q7.8 1.5 13.1 5.5 5.5 4.1 12.1 12.1l48.4 60h-37.8l-39.4-48.6q-6-7.6-13.3-8.3-7.3-0.8-14.9 5.5l-31.2 26 8-20.7zm312 3.5q-29.2 0-50.4-9.6-21.1-9.8-32.5-28.2-11-18.6-11-44.8v-100.8h33v99.8q0 17.6 7 31 7.1 13.1 20.9 20.4 13.9 7 34.1 7 19.9 0 33.2-7 13.6-7.3 20.4-20.4 7.1-13.1 7.1-30.8v-100h29.7v100.5q0 26.5-11.1 45.1-10.8 18.4-31.2 28.2-20.4 9.6-49.2 9.6zm158.1-3.5h-32.8v-179.9h32.8z"/><path class="b" d="m254.7 429h-33.1v-179.9h33.1zm156.2 0h-32.8v-180h32.8zm-28.7-78.8h-131.6v-25.7h131.6zm109 82.1q-25.4 0-39.8-10.1-14.1-10.3-14.1-28.4 0-10.9 5.6-18.7 5.5-8.1 16.3-12.8 11.1-5.1 27-6.8l57.5-6.3q6.5-0.8 9.5-3.3 3.3-2.8 3.3-7.6v-0.2q0-6.6-4.8-11.1-4.5-4.6-13.3-6.8-8.9-2.5-21.2-2.5-18.4 0-29 4.7-10.6 4.6-12.6 13.7h-31.5q1.8-12.9 10.9-21.7 9-9.1 24.9-13.6 15.9-4.8 37.8-4.8 23.4 0 39.1 5.3 15.6 5 23.4 15.3 7.8 10.1 7.8 25.5v86.9h-30.2v-40.5l3.2 4q-5.5 12.9-15.6 21.9-9.8 8.8-23.7 13.4-13.6 4.5-30.5 4.5zm10.1-22.4q11.6 0 21.4-3 10.1-3.3 17.7-8.9 7.5-5.5 11.8-12.8 4.3-7.6 4.3-16.1v-14.9l5.3 7.6q-4 2.5-9.8 4-5.8 1.2-16.2 2.5l-45.8 6.1q-10.1 1.2-15.1 5.2-4.8 4.1-4.8 11.1 0 9.6 7.8 14.4 8.1 4.8 23.4 4.8zm198.5 19.1h-36.3l-66.7-129.5h35.5l56.2 114.7h-10.1l56.2-114.7h32zm154.2 3.5q-25.7 0-44.6-8.3-18.9-8.5-29.3-23.9-10.1-15.6-10.1-36.3 0-12.1 3.8-22.7 3.8-10.6 10.9-18.9 7.3-8.3 17.3-14.3 10.4-6.1 23.5-9.1 13.1-3 28.5-3 25.9 0 44.8 8.5 18.9 8.3 29 23.7 10.1 15.1 10.1 35.8 0 12.6-3.8 23.2-3.5 10.6-10.8 18.9-7.1 8.3-17.4 14.3-10.1 5.8-23.2 9.1-13.1 3-28.7 3zm0-23.1q10.3 0 18.4-2.3 8.3-2.3 14.3-6.3 6.3-4.3 10.4-9.8 4.2-5.6 6.3-12.4 2-7 2-14.6 0-12.6-5.8-22.7-5.6-10.3-16.9-16.1-11.4-6.1-28.7-6.1-10.1 0-18.4 2.3-8.1 2.3-14.4 6.3-6 4-10.3 9.8-4.1 5.6-6.1 12.4-2 6.5-2 14.1 0 12.6 5.5 22.9 5.8 10.4 17.2 16.4 11.6 6.1 28.5 6.1zm137.3 19.6h-31.5v-179.9h31.5v126l-8.8-3.3 85.7-72.3h39.8l-61.7 51.9q7.8 1.5 13.1 5.5 5.5 4.1 12.1 12.1l48.4 60h-37.8l-39.4-48.6q-6-7.6-13.3-8.3-7.3-0.8-14.9 5.5l-31.2 26 8-20.7zm312 3.5q-29.2 0-50.4-9.6-21.1-9.8-32.5-28.2-11-18.6-11-44.8v-100.8h33v99.8q0 17.6 7 31 7.1 13.1 20.9 20.4 13.9 7 34.1 7 19.9 0 33.2-7 13.6-7.3 20.4-20.4 7.1-13.1 7.1-30.8v-100h29.7v100.5q0 26.5-11.1 45.1-10.8 18.4-31.2 28.2-20.4 9.6-49.2 9.6zm158.1-3.5h-32.8v-179.9h32.8z"/></svg>